<svg width="19" height="23" viewBox="0 0 19 23" fill="none" xmlns="http://www.w3.org/2000/svg">
<g clip-path="url(#clip0_79_20)">
<path d="M0 0V22.532H15.022V19.402H18.152V0.0019989L0 0ZM4.369 15.1V15.965H3.743V15.149H3.67C2.91767 15.158 2.17577 14.9726 1.51601 14.611L1.791 13.696C2.38164 14.0503 3.05627 14.2402 3.745 14.246C4.858 14.246 5.509 13.658 5.509 12.806C5.509 12.017 5.058 11.567 3.918 11.13C2.541 10.641 1.69 9.93 1.69 8.739C1.70128 8.17841 1.91784 7.64144 2.29863 7.22987C2.67942 6.8183 3.19797 6.56073 3.756 6.506V5.632H4.382V6.445H4.42C5.06681 6.4226 5.70875 6.56434 6.286 6.857L5.98601 7.745C5.49417 7.48085 4.94428 7.34338 4.386 7.345C3.235 7.345 2.795 8.035 2.795 8.609C2.795 9.398 3.30901 9.785 4.47101 10.236C5.89701 10.786 6.625 11.475 6.625 12.715C6.6259 13.325 6.39272 13.9121 5.97354 14.3553C5.55436 14.7985 4.98112 15.064 4.37199 15.097L4.369 15.1ZM16.899 15.652H8.136V15.022H16.899V15.652ZM16.899 13.775H8.136V13.146H16.899V13.775ZM16.899 11.898H8.136V11.269H16.899V11.898ZM16.899 10.021H8.136V9.392H16.899V10.021ZM16.899 8.144H8.136V7.513H16.899V8.144ZM16.899 6.267H8.136V5.632H16.899V6.267Z" fill="#E91D26"/>
<path d="M15.6489 22.5322L18.1489 20.0322H15.6489V22.5322Z" fill="#E91D26"/>
</g>
<defs>
<clipPath id="clip0_79_20">
<rect width="18.152" height="22.533" fill="white"/>
</clipPath>
</defs>
</svg>
