<svg id="noun-invoice-1423875" xmlns="http://www.w3.org/2000/svg" width="18.152" height="22.533" viewBox="0 0 18.152 22.533">
  <path id="Path_70" data-name="Path 70" d="M162.03,46.668V69.2h15.022v-3.13h3.13v-19.4Zm4.369,15.1v.865h-.626v-.816H165.7a4.373,4.373,0,0,1-2.154-.538l.275-.915a3.862,3.862,0,0,0,1.954.55c1.113,0,1.764-.588,1.764-1.44,0-.789-.451-1.239-1.591-1.676-1.377-.489-2.228-1.2-2.228-2.391a2.29,2.29,0,0,1,2.066-2.233V52.3h.626v.813h.038a3.833,3.833,0,0,1,1.866.412l-.3.888a3.361,3.361,0,0,0-1.6-.4c-1.151,0-1.591.69-1.591,1.264,0,.789.514,1.176,1.676,1.627,1.426.55,2.154,1.239,2.154,2.479a2.382,2.382,0,0,1-2.253,2.382Zm12.53.552h-8.763V61.69h8.763Zm0-1.877h-8.763v-.629h8.763Zm0-1.877h-8.763v-.629h8.763Zm0-1.877h-8.763v-.629h8.763Zm0-1.877h-8.763v-.631h8.763Zm0-1.877h-8.763V52.3h8.763Z" transform="translate(-162.03 -46.668)" fill="#818b96"/>
  <path id="Path_71" data-name="Path 71" d="M486.12,463.989l2.5-2.5h-2.5Z" transform="translate(-470.471 -441.457)" fill="#818b96"/>
</svg>
