<svg id="noun-notification-1206586" xmlns="http://www.w3.org/2000/svg" width="18.229" height="22.296" viewBox="0 0 18.229 22.296">
  <path id="Path_111" data-name="Path 111" d="M288.886,467.163a2.746,2.746,0,0,0,2.728-2.361h-5.456a2.746,2.746,0,0,0,2.728,2.361Z" transform="translate(-279.863 -444.866)" fill="#9aa6b2"/>
  <path id="Path_112" data-name="Path 112" d="M178.378,48.673c0,3.751-.682,5.614-1.416,6.505h15.686c-.734-.892-1.416-2.728-1.416-6.505a6.242,6.242,0,0,0-4.2-6.348,2.438,2.438,0,0,0,.131-.761,2.361,2.361,0,1,0-4.721,0,2.436,2.436,0,0,0,.131.761,6.267,6.267,0,0,0-4.2,6.348Zm6.427-8.42a1.3,1.3,0,0,1,1.312,1.312,1.483,1.483,0,0,1-.079.472,5.422,5.422,0,0,0-2.466,0,1.488,1.488,0,0,1-.079-.472,1.3,1.3,0,0,1,1.312-1.312Zm-4.459,7.266a4.883,4.883,0,0,1,2.361-3.253.517.517,0,1,1,.525.892,3.963,3.963,0,0,0-1.836,2.492.514.514,0,0,1-.525.446h-.079a.51.51,0,0,1-.446-.577Z" transform="translate(-175.782 -39.204)" fill="#9aa6b2"/>
  <path id="Path_113" data-name="Path 113" d="M169.808,398.516c0-.236.262-.708.157-.918h-18.1a2.677,2.677,0,0,0-.1.918,1.456,1.456,0,0,0,1.443,1.443h15.188A1.433,1.433,0,0,0,169.808,398.516Z" transform="translate(-151.761 -380.81)" fill="#9aa6b2"/>
</svg>
