<svg width="21" height="24" viewBox="0 0 21 24" fill="none" xmlns="http://www.w3.org/2000/svg">
<g clip-path="url(#clip0_77_3)">
<mask id="mask0_77_3" style="mask-type:luminance" maskUnits="userSpaceOnUse" x="0" y="0" width="21" height="24">
<path d="M20.35 0H0V23.418H20.35V0Z" fill="white"/>
</mask>
<g mask="url(#mask0_77_3)">
<path d="M20.045 8.86504L10.887 0.265036C10.6996 0.0930071 10.4544 -0.00244141 10.2 -0.00244141C9.94562 -0.00244141 9.70047 0.0930071 9.51303 0.265036L0.355029 8.66004C0.244379 8.74283 0.154579 8.8503 0.0927766 8.97391C0.0309737 9.09751 -0.00112906 9.23384 -0.000973394 9.37204V21.991C-0.00136843 22.1782 0.035183 22.3636 0.106593 22.5366C0.178004 22.7096 0.282868 22.8668 0.415164 22.9992C0.54746 23.1315 0.704592 23.2365 0.877543 23.3081C1.0505 23.3796 1.23587 23.4163 1.42303 23.416H6.61203C6.88151 23.4152 7.13973 23.3078 7.33028 23.1173C7.52084 22.9267 7.62824 22.6685 7.62903 22.399V16.799H12.717V22.399C12.7178 22.6685 12.8252 22.9267 13.0158 23.1173C13.2063 23.3078 13.4645 23.4152 13.734 23.416H18.872C19.0592 23.4234 19.2461 23.3936 19.4218 23.3284C19.5975 23.2632 19.7585 23.1639 19.8956 23.0361C20.0327 22.9084 20.1432 22.7548 20.2207 22.5842C20.2981 22.4136 20.3411 22.2293 20.347 22.042V9.62604C20.351 9.48477 20.3259 9.34419 20.2735 9.21297C20.221 9.08175 20.1422 8.96265 20.042 8.86303L20.045 8.86504Z" fill="#818B96"/>
</g>
</g>
<defs>
<clipPath id="clip0_77_3">
<rect width="21" height="24" fill="white"/>
</clipPath>
</defs>
</svg>
