<svg xmlns="http://www.w3.org/2000/svg" width="21.732" height="24.447" viewBox="0 0 21.732 24.447">
  <g id="_1" data-name="1" transform="translate(-12.08 -7.56)">
    <path id="Path_205" data-name="Path 205" d="M27.69,18.187V14.538l-6.11-3.652V7.56h-9.5V32.007H22.864V16.476h.907V32.007h.819V16.476H25.5V32.007h3.489V24.424h.907v7.583h.819V24.424h.907v7.583h2.192V21.839ZM15.239,29h-.907V27.56h.907Zm0-2.721h-.907V24.839h.907Zm0-2.942h-.907V21.9h.907Zm0-2.945h-.907V18.952h.907Zm0-2.942h-.907V16.01h.907Zm0-2.721h-.907V13.289h.907Zm0-2.721h-.907V10.568h.907ZM17.259,29h-.907V27.56h.907Zm0-2.721h-.907V24.839h.907Zm0-2.942h-.907V21.9h.907Zm0-2.945h-.907V18.952h.907Zm0-2.942h-.907V16.01h.907Zm0-2.721h-.907V13.289h.907Zm0-2.721h-.907V10.568h.907ZM19.327,29H18.42V27.56h.907Zm0-2.721H18.42V24.839h.907Zm0-2.942H18.42V21.9h.907Zm0-2.945H18.42V18.952h.907Zm0-2.942H18.42V16.01h.907Zm0-2.721H18.42V13.289h.907Zm0-2.721H18.42V10.568h.907Z" fill="#818b96"/>
  </g>
</svg>
