<svg width="22" height="25" viewBox="0 0 22 25" fill="none" xmlns="http://www.w3.org/2000/svg">
<g clip-path="url(#clip0_79_11)">
<path d="M15.61 10.627V6.978L9.5 3.326V0H0V24.447H10.784V8.916H11.691V24.447H12.51V8.916H13.42V24.447H16.909V16.864H17.816V24.447H18.635V16.864H19.542V24.447H21.734V14.279L15.61 10.627ZM3.159 21.44H2.252V20H3.159V21.44ZM3.159 18.719H2.252V17.279H3.159V18.719ZM3.159 15.777H2.252V14.34H3.159V15.777ZM3.159 12.832H2.252V11.392H3.159V12.832ZM3.159 9.89H2.252V8.45H3.159V9.89ZM3.159 7.169H2.252V5.729H3.159V7.169ZM3.159 4.448H2.252V3.008H3.159V4.448ZM5.179 21.44H4.272V20H5.179V21.44ZM5.179 18.719H4.272V17.279H5.179V18.719ZM5.179 15.777H4.272V14.34H5.179V15.777ZM5.179 12.832H4.272V11.392H5.179V12.832ZM5.179 9.89H4.272V8.45H5.179V9.89ZM5.179 7.169H4.272V5.729H5.179V7.169ZM5.179 4.448H4.272V3.008H5.179V4.448ZM7.247 21.44H6.34V20H7.247V21.44ZM7.247 18.719H6.34V17.279H7.247V18.719ZM7.247 15.777H6.34V14.34H7.247V15.777ZM7.247 12.832H6.34V11.392H7.247V12.832ZM7.247 9.89H6.34V8.45H7.247V9.89ZM7.247 7.169H6.34V5.729H7.247V7.169ZM7.247 4.448H6.34V3.008H7.247V4.448Z" fill="#E91D26"/>
</g>
<defs>
<clipPath id="clip0_79_11">
<rect width="21.732" height="24.447" fill="white"/>
</clipPath>
</defs>
</svg>
