<svg width="19" height="26" viewBox="0 0 19 26" fill="none" xmlns="http://www.w3.org/2000/svg">
<g clip-path="url(#clip0_79_17)">
<path d="M7.126 0C6.98419 0.0132417 6.85248 0.0790756 6.75679 0.18457C6.66111 0.290065 6.60838 0.427584 6.609 0.570007V1.15796H4.935C4.78383 1.15796 4.63884 1.21806 4.53195 1.32495C4.42505 1.43185 4.365 1.57679 4.365 1.72797V2.44098H0.57C0.495146 2.44098 0.421025 2.45573 0.35187 2.48438C0.282714 2.51302 0.219878 2.55498 0.166948 2.60791C0.114019 2.66084 0.0720335 2.72369 0.0433884 2.79285C0.0147432 2.862 0 2.93613 0 3.01099V24.511C0 24.6622 0.0600526 24.8071 0.166948 24.914C0.273844 25.0209 0.418826 25.081 0.57 25.081H17.582C17.7332 25.081 17.8782 25.0209 17.9851 24.914C18.0919 24.8071 18.152 24.6622 18.152 24.511V3.01099C18.152 2.93613 18.1373 2.862 18.1086 2.79285C18.08 2.72369 18.038 2.66084 17.9851 2.60791C17.9321 2.55498 17.8693 2.51302 17.8001 2.48438C17.731 2.45573 17.6569 2.44098 17.582 2.44098H13.788V1.72797C13.788 1.57679 13.7279 1.43185 13.621 1.32495C13.5142 1.21806 13.3692 1.15796 13.218 1.15796H11.535V0.570007C11.535 0.495154 11.5203 0.421023 11.4916 0.351868C11.463 0.282712 11.421 0.219861 11.3681 0.166931C11.3151 0.114002 11.2523 0.0720412 11.1831 0.043396C11.114 0.0147508 11.0399 0 10.965 0H7.126ZM7.75 1.13995H10.394V1.72797C10.394 1.87914 10.4541 2.02415 10.5609 2.13104C10.6678 2.23794 10.8128 2.29797 10.964 2.29797H12.644V3.73895H5.505V2.29596H7.179C7.33017 2.29596 7.47515 2.23592 7.58205 2.12903C7.68895 2.02213 7.749 1.87713 7.749 1.72595L7.75 1.13995ZM3.323 7.40997H14.901C15.0522 7.40997 15.1972 7.47001 15.3041 7.5769C15.4109 7.6838 15.471 7.82881 15.471 7.97998C15.471 8.13115 15.4109 8.27616 15.3041 8.38306C15.1972 8.48995 15.0522 8.54999 14.901 8.54999H3.376C3.29952 8.55636 3.22253 8.54724 3.14965 8.52319C3.07677 8.49914 3.00948 8.46067 2.95181 8.41003C2.89414 8.35939 2.84727 8.29762 2.81401 8.22845C2.78074 8.15929 2.76176 8.08411 2.75819 8.00745C2.75463 7.93078 2.76656 7.85418 2.79326 7.78223C2.81997 7.71028 2.86091 7.64446 2.91363 7.58868C2.96635 7.53291 3.02978 7.48835 3.10011 7.45764C3.17045 7.42693 3.24626 7.41072 3.323 7.40997ZM3.314 11.899C3.33465 11.8978 3.35535 11.8978 3.376 11.899H14.901C15.0522 11.899 15.1972 11.959 15.3041 12.0659C15.4109 12.1728 15.471 12.3178 15.471 12.469C15.471 12.6202 15.4109 12.7651 15.3041 12.872C15.1972 12.9789 15.0522 13.039 14.901 13.039H3.376C3.30012 13.0449 3.22381 13.0356 3.15158 13.0116C3.07935 12.9876 3.01265 12.9494 2.95539 12.8992C2.89813 12.8491 2.85148 12.788 2.81817 12.7195C2.78487 12.6511 2.76558 12.5767 2.76145 12.5007C2.75731 12.4247 2.76842 12.3486 2.7941 12.277C2.81979 12.2053 2.85954 12.1396 2.91102 12.0835C2.9625 12.0274 3.02467 11.9823 3.09388 11.9506C3.16308 11.9189 3.23792 11.9013 3.314 11.899ZM3.323 16.379H14.901C15.0522 16.379 15.1972 16.439 15.3041 16.5459C15.4109 16.6528 15.471 16.7978 15.471 16.949C15.471 17.1001 15.4109 17.2452 15.3041 17.3521C15.1972 17.4589 15.0522 17.519 14.901 17.519H3.376C3.29952 17.5254 3.22253 17.5162 3.14965 17.4922C3.07677 17.4681 3.00948 17.4297 2.95181 17.379C2.89414 17.3284 2.84727 17.2666 2.81401 17.1974C2.78074 17.1283 2.76176 17.0531 2.75819 16.9764C2.75463 16.8998 2.76656 16.8232 2.79326 16.7513C2.81997 16.6793 2.86091 16.6135 2.91363 16.5577C2.96635 16.5019 3.02978 16.4573 3.10011 16.4266C3.17045 16.3959 3.24626 16.3797 3.323 16.379ZM3.314 20.868H11.814C11.9652 20.868 12.1102 20.928 12.2171 21.0349C12.3239 21.1418 12.384 21.2868 12.384 21.438C12.384 21.5892 12.3239 21.7341 12.2171 21.841C12.1102 21.9479 11.9652 22.008 11.814 22.008H3.376C3.22696 22.0126 3.08203 21.9587 2.97219 21.8578C2.86236 21.757 2.79634 21.6172 2.78824 21.4683C2.78014 21.3194 2.83061 21.1732 2.92886 21.061C3.02711 20.9489 3.16534 20.8796 3.314 20.868Z" fill="#E91D26"/>
</g>
<defs>
<clipPath id="clip0_79_17">
<rect width="18.152" height="25.082" fill="white"/>
</clipPath>
</defs>
</svg>
