<?xml version="1.0" encoding="UTF-8"?>
<svg version="1.1" xmlns="http://www.w3.org/2000/svg" width="754" height="883">
<path d="M0 0 C6.12856215 0.00231944 12.25712152 0.00255513 18.38568399 0.00148416 C19.27276489 0.00133093 20.1598458 0.0011777 21.07380795 0.00101982 C22.878282 0.00069996 24.68275605 0.00037574 26.4872301 0.00004723 C43.22542023 -0.00277314 59.9636048 0.00042511 76.70179401 0.0058476 C90.94004389 0.01031795 105.17828561 0.00953101 119.41653535 0.00492883 C136.12386711 -0.00046921 152.83119406 -0.00250443 169.53852657 0.0005411 C171.33259043 0.00085951 173.1266543 0.00117388 174.92071817 0.00148416 C175.80247512 0.00163844 176.68423207 0.00179271 177.59270893 0.00195166 C183.68919231 0.00280087 189.7856725 0.00137011 195.88215539 -0.00099539 C305.53116511 -0.03982991 305.53116511 -0.03982991 333.5754709 2.54545618 C334.65296602 2.64419031 334.65296602 2.64419031 335.75222871 2.74491907 C339.36144597 3.47396637 340.67735602 5.15448162 342.6848459 8.13529993 C347.84847629 22.68475574 345.8259181 41.28838582 345.79837129 56.51420618 C345.79808863 58.72343468 345.79824869 60.93266328 345.79881379 63.14189173 C345.79909869 69.0911761 345.79325202 75.04043999 345.78623984 80.98971964 C345.77995476 87.2250129 345.77939844 93.46030672 345.77821443 99.69560266 C345.77529195 110.81308285 345.76808514 121.93055462 345.75857171 133.04803098 C345.74998567 143.13571392 345.74375246 153.22339536 345.73977754 163.31108118 C345.73951482 163.97596461 345.73925209 164.64084805 345.73898141 165.32587946 C345.73767621 168.66198126 345.7364148 171.99808307 345.7351695 175.33418489 C345.72473938 202.93456175 345.70716941 230.53493031 345.6848459 258.13529993 C347.07987384 258.13253455 347.07987384 258.13253455 348.50308416 258.1297133 C371.27965784 258.08503639 394.05622576 258.05231798 416.83283422 258.03167558 C427.84805526 258.02142418 438.86324712 258.00748342 449.87844941 257.98442102 C459.49495747 257.96429689 469.11144436 257.95153911 478.7279729 257.94712294 C483.80559947 257.94454725 488.88316558 257.93862657 493.96077249 257.92383981 C512.48770649 257.87210786 530.98272171 257.85034011 549.47952363 259.02250696 C550.73200175 259.10021766 551.98447986 259.17792837 553.27491185 259.25799394 C567.86046546 260.31091949 567.86046546 260.31091949 570.6848459 263.13529993 C575.13591505 289.35078812 573.68843085 317.30996105 574.18093965 343.84623743 C574.20260635 345.0127943 574.22427305 346.17935118 574.24659631 347.38125826 C574.74015886 374.27713575 575.03141172 401.17341345 575.2473459 428.07279993 C575.25768609 429.335487 575.26802629 430.59817407 575.27867982 431.89912439 C575.90328379 508.48308516 576.01982586 585.07545532 575.2473459 713.13529993 C575.2325607 714.97407205 575.2325607 714.97407205 575.21747682 716.84999109 C574.99904026 743.88759548 574.67266002 770.92152003 574.18093965 797.95561243 C574.16011386 799.10337152 574.13928808 800.25113062 574.1178312 801.43367029 C572.90738952 867.34008805 572.90738952 867.34008805 570.6848459 878.13529993 C560.18966463 885.13208744 539.90272131 882.34699125 527.54809663 882.68580652 C526.79759577 882.70693415 526.04709491 882.72806178 525.27385159 882.74982964 C508.61633039 883.21046459 491.96503846 883.27961107 475.3021743 883.2660246 C471.06587913 883.2637051 466.82958755 883.26728195 462.59329316 883.27000452 C454.34324363 883.27439511 446.09320332 883.27351552 437.84315347 883.27059188 C431.11246477 883.26830826 424.38177861 883.26803794 417.65108964 883.26911569 C416.19911343 883.26934554 416.19911343 883.26934554 414.71780437 883.26958004 C412.74946982 883.26989986 410.78113527 883.27022408 408.81280072 883.27055263 C390.45256511 883.27338851 372.09233452 883.27015173 353.73209973 883.26475226 C338.10811025 883.26029882 322.48412821 883.26105179 306.86013887 883.26567102 C288.58136015 883.27107287 270.30258583 883.27310069 252.02380643 883.27005876 C250.0582996 883.26974033 248.09279276 883.26942595 246.12728593 883.26911569 C244.67792452 883.26888428 244.67792452 883.26888428 243.19928307 883.26864819 C236.51568869 883.26779872 229.83209722 883.2692319 223.14850328 883.27159525 C154.16637805 883.29375915 154.16637805 883.29375915 122.44607637 882.68949915 C121.40855863 882.67008713 120.3710409 882.65067511 119.30208323 882.63067485 C108.68002696 882.42415332 98.06454763 882.10968145 87.44976899 881.66316248 C86.51296702 881.62603391 85.57616504 881.58890535 84.61097512 881.55065168 C83.74609133 881.51157009 82.88120753 881.47248849 81.99011514 881.43222261 C81.22901535 881.39909223 80.46791557 881.36596186 79.68375215 881.33182753 C77.6848459 881.13529993 77.6848459 881.13529993 74.6848459 880.13529993 C72.33784559 875.89925059 72.05852657 871.2511515 71.6223459 866.51029993 C71.54580781 865.68209741 71.46926973 864.8538949 71.3904123 864.00059534 C70.77530523 856.88995109 70.40620971 849.790956 70.15750215 842.65873743 C70.11568818 841.48712061 70.07387422 840.31550379 70.03079316 839.10838342 C69.59004965 826.20307775 69.36952368 813.29641003 69.1848459 800.38529993 C69.15490672 798.38948339 69.12496638 796.39366687 69.09496686 794.39785124 C68.71272565 768.79644706 68.43118189 743.19365345 68.15618989 717.59091211 C68.12274884 714.4852213 68.08888207 711.37953535 68.05496309 708.27384973 C67.80828132 685.56031404 67.60368166 662.85040616 67.6848459 640.13529993 C66.64099984 640.13873659 66.64099984 640.13873659 65.57606599 640.14224268 C40.46427529 640.21194758 15.3574194 639.96920117 -9.7526541 639.69779993 C-11.33484362 639.68082622 -11.33484362 639.68082622 -12.94899657 639.66350961 C-28.40450387 639.49757384 -43.85988359 639.321999 -59.3151541 639.13529993 C-60.13813742 639.12539026 -60.96112075 639.11548059 -61.80904296 639.10527063 C-86.90607762 638.8015764 -111.99514941 638.46701364 -137.0651541 637.19779993 C-138.21579344 637.14137827 -138.21579344 637.14137827 -139.38967803 637.08381677 C-146.32650037 636.73294362 -153.2512348 636.26195224 -160.1432791 635.38139368 C-161.07559355 635.26336389 -162.00790801 635.14533411 -162.96847441 635.02372766 C-165.3151541 634.13529993 -165.3151541 634.13529993 -167.09493926 631.84672571 C-173.08502071 618.5362326 -170.54089211 597.8133647 -170.86175444 583.27742029 C-170.88303817 582.3339636 -170.9043219 581.39050691 -170.92625059 580.41846063 C-171.42342512 557.89514526 -171.45890039 535.3749587 -171.44587877 512.84712625 C-171.44356704 506.8976356 -171.44713216 500.94814756 -171.44985869 494.99865747 C-171.45425422 483.41340154 -171.45336826 471.82815217 -171.45044605 460.24289601 C-171.44813189 450.81489071 -171.44786363 441.38688713 -171.44896987 431.95888162 C-171.44904625 431.28337145 -171.44912264 430.60786127 -171.44920134 429.91188109 C-171.44951279 427.16827611 -171.4498312 424.42467114 -171.4501611 421.68106617 C-171.45320293 396.07714324 -171.45047352 370.47322386 -171.4450642 344.86930148 C-171.44031508 322.21805689 -171.44074978 299.56681792 -171.4455252 276.91557337 C-171.45090015 251.33640167 -171.45299237 225.75723308 -171.44991293 200.1780609 C-171.44959231 197.44322746 -171.44927947 194.70839402 -171.44896987 191.97356058 C-171.44889079 191.30040579 -171.44881171 190.627251 -171.44873024 189.93369758 C-171.44760165 179.85141093 -171.44891271 169.76912665 -171.45144942 159.6868403 C-171.45427431 148.20924401 -171.45345284 136.73165454 -171.44816868 125.25405901 C-171.44556837 119.41676923 -171.44446313 113.57949076 -171.44781783 107.7422011 C-171.45846782 87.44970889 -171.46375923 67.16401671 -170.86566069 46.87873865 C-170.83613174 45.85818151 -170.83613174 45.85818151 -170.80600623 44.81700706 C-169.82782627 12.18061975 -169.82782627 12.18061975 -166.3151541 6.13529993 C-162.59375655 3.43698689 -159.77808305 2.71236538 -155.2214041 2.47904993 C-154.07027129 2.4145968 -152.91913848 2.35014368 -151.73312285 2.28373743 C-150.60519316 2.23475305 -149.47726348 2.18576868 -148.3151541 2.13529993 C-147.38316191 2.08631555 -146.45116973 2.03733118 -145.49093535 1.98686243 C-97.06098048 -0.38921039 -48.47435862 -0.01885982 0 0 Z M-75.3151541 105.13529993 C-75.3151541 118.33529993 -75.3151541 131.53529993 -75.3151541 145.13529993 C44.1448459 145.13529993 163.6048459 145.13529993 286.6848459 145.13529993 C286.6848459 131.93529993 286.6848459 118.73529993 286.6848459 105.13529993 C167.2248459 105.13529993 47.7648459 105.13529993 -75.3151541 105.13529993 Z M-112.3151541 192.13529993 C-112.3151541 206.98529993 -112.3151541 221.83529993 -112.3151541 237.13529993 C19.3548459 237.13529993 151.0248459 237.13529993 286.6848459 237.13529993 C286.6848459 222.28529993 286.6848459 207.43529993 286.6848459 192.13529993 C155.0148459 192.13529993 23.3448459 192.13529993 -112.3151541 192.13529993 Z M-112.3151541 284.13529993 C-112.3151541 298.98529993 -112.3151541 313.83529993 -112.3151541 329.13529993 C-56.2151541 329.13529993 -0.1151541 329.13529993 57.6848459 329.13529993 C57.6848459 314.28529993 57.6848459 299.43529993 57.6848459 284.13529993 C1.5848459 284.13529993 -54.5151541 284.13529993 -112.3151541 284.13529993 Z M95.6848459 284.13529993 C95.6848459 473.55529993 95.6848459 662.97529993 95.6848459 858.13529993 C320.70868494 862.06041458 320.70868494 862.06041458 546.6848459 855.13529993 C546.6848459 667.36529993 546.6848459 479.59529993 546.6848459 286.13529993 C396.37085478 283.45112152 246.01572428 284.13529993 95.6848459 284.13529993 Z M-116.3151541 375.13529993 C-116.3151541 389.98529993 -116.3151541 404.83529993 -116.3151541 420.13529993 C-58.8951541 420.13529993 -1.4751541 420.13529993 57.6848459 420.13529993 C57.6848459 405.28529993 57.6848459 390.43529993 57.6848459 375.13529993 C0.2648459 375.13529993 -57.1551541 375.13529993 -116.3151541 375.13529993 Z M-112.3151541 467.13529993 C-112.3151541 480.66529993 -112.3151541 494.19529993 -112.3151541 508.13529993 C-56.2151541 508.13529993 -0.1151541 508.13529993 57.6848459 508.13529993 C57.6848459 494.60529993 57.6848459 481.07529993 57.6848459 467.13529993 C1.5848459 467.13529993 -54.5151541 467.13529993 -112.3151541 467.13529993 Z " fill="#71757A" transform="translate(175.3151541016996,-0.1352999284863472)"/>
<path d="M0 0 C131.01 0 262.02 0 397 0 C397 14.19 397 28.38 397 43 C265.99 43 134.98 43 0 43 C0 28.81 0 14.62 0 0 Z " fill="#71757A" transform="translate(299,445)"/>
<path d="M0 0 C131.01 0 262.02 0 397 0 C397 12.87 397 25.74 397 39 C265.99 39 134.98 39 0 39 C0 26.13 0 13.26 0 0 Z " fill="#71757A" transform="translate(299,628)"/>
<path d="M0 0 C131.01 0 262.02 0 397 0 C397 12.54 397 25.08 397 38 C265.99 38 134.98 38 0 38 C0 25.46 0 12.92 0 0 Z " fill="#71757A" transform="translate(299,537)"/>
<path d="M0 0 C118.47 0 236.94 0 359 0 C359 12.54 359 25.08 359 38 C240.53 38 122.06 38 0 38 C0 25.46 0 12.92 0 0 Z " fill="#71757A" transform="translate(337,358)"/>
<path d="M0 0 C98.01 0 196.02 0 297 0 C297 12.87 297 25.74 297 39 C198.99 39 100.98 39 0 39 C0 26.13 0 13.26 0 0 Z " fill="#71757A" transform="translate(299,720)"/>
</svg>
