<?xml version="1.0" encoding="UTF-8"?>
<!DOCTYPE svg PUBLIC "-//W3C//DTD SVG 1.1//EN" "http://www.w3.org/Graphics/SVG/1.1/DTD/svg11.dtd">
<svg xmlns="http://www.w3.org/2000/svg" version="1.1" width="754px" height="883px" style="shape-rendering:geometricPrecision; text-rendering:geometricPrecision; image-rendering:optimizeQuality; fill-rule:evenodd; clip-rule:evenodd" xmlns:xlink="http://www.w3.org/1999/xlink">
<g><path style="opacity:0.987" fill="#e81d25" d="M 107.5,-0.5 C 216.5,-0.5 325.5,-0.5 434.5,-0.5C 457.339,0.332162 480.339,1.1655 503.5,2C 506.5,2.33333 509.5,2.66667 512.5,3C 514.667,3.83333 516.167,5.33333 517,7.5C 518.91,16.0521 519.91,24.7187 520,33.5C 520.5,108.166 520.667,182.833 520.5,257.5C 582.501,257.333 644.501,257.5 706.5,258C 716.857,258.319 727.191,258.985 737.5,260C 740.234,260.21 742.734,261.044 745,262.5C 747.623,299.108 748.957,335.775 749,372.5C 751,504.167 751,635.833 749,767.5C 748.998,804.227 747.665,840.893 745,877.5C 744.25,878.126 743.416,878.626 742.5,879C 722.71,880.708 703.044,881.875 683.5,882.5C 564.833,882.5 446.167,882.5 327.5,882.5C 302.66,881.724 277.66,880.891 252.5,880C 250.939,879.682 249.772,878.849 249,877.5C 247.964,874.247 247.297,870.914 247,867.5C 245.988,854.185 245.322,840.852 245,827.5C 244.079,764.833 243.246,702.166 242.5,639.5C 173.488,638.993 104.488,637.826 35.5,636C 26.7382,635.755 18.0716,634.755 9.5,633C 8.10679,631.829 7.27346,630.329 7,628.5C 5.06154,605.215 4.06154,581.881 4,558.5C 3.33333,394.167 3.33333,229.833 4,65.5C 4.07994,47.109 5.07994,28.7757 7,10.5C 7.38062,6.45268 9.54729,3.95268 13.5,3C 44.9748,1.34931 76.3081,0.182642 107.5,-0.5 Z M 99.5,104.5 C 220.167,104.5 340.833,104.5 461.5,104.5C 461.5,117.833 461.5,131.167 461.5,144.5C 340.833,144.5 220.167,144.5 99.5,144.5C 99.5,131.167 99.5,117.833 99.5,104.5 Z M 62.5,191.5 C 195.5,191.5 328.5,191.5 461.5,191.5C 461.5,206.5 461.5,221.5 461.5,236.5C 328.5,236.5 195.5,236.5 62.5,236.5C 62.5,221.5 62.5,206.5 62.5,191.5 Z M 62.5,283.5 C 119.167,283.5 175.833,283.5 232.5,283.5C 232.5,298.5 232.5,313.5 232.5,328.5C 175.833,328.5 119.167,328.5 62.5,328.5C 62.5,313.5 62.5,298.5 62.5,283.5 Z M 270.5,283.5 C 420.836,283.618 571.17,284.285 721.5,285.5C 721.5,475.167 721.5,664.833 721.5,854.5C 571.468,855.662 421.468,856.662 271.5,857.5C 270.5,666.168 270.167,474.834 270.5,283.5 Z M 58.5,374.5 C 116.5,374.5 174.5,374.5 232.5,374.5C 232.5,389.5 232.5,404.5 232.5,419.5C 174.5,419.5 116.5,419.5 58.5,419.5C 58.5,404.5 58.5,389.5 58.5,374.5 Z M 62.5,466.5 C 119.167,466.5 175.833,466.5 232.5,466.5C 232.5,480.167 232.5,493.833 232.5,507.5C 175.833,507.5 119.167,507.5 62.5,507.5C 62.5,493.833 62.5,480.167 62.5,466.5 Z"/></g>
<g><path style="opacity:0.992" fill="#e81d25" d="M 336.5,357.5 C 456.167,357.5 575.833,357.5 695.5,357.5C 695.5,370.167 695.5,382.833 695.5,395.5C 575.833,395.5 456.167,395.5 336.5,395.5C 336.5,382.833 336.5,370.167 336.5,357.5 Z"/></g>
<g><path style="opacity:0.974" fill="#e81d25" d="M 298.5,444.5 C 430.833,444.5 563.167,444.5 695.5,444.5C 695.5,458.833 695.5,473.167 695.5,487.5C 563.167,487.5 430.833,487.5 298.5,487.5C 298.5,473.167 298.5,458.833 298.5,444.5 Z"/></g>
<g><path style="opacity:0.991" fill="#e81d25" d="M 298.5,536.5 C 430.833,536.5 563.167,536.5 695.5,536.5C 695.5,549.167 695.5,561.833 695.5,574.5C 563.167,574.5 430.833,574.5 298.5,574.5C 298.5,561.833 298.5,549.167 298.5,536.5 Z"/></g>
<g><path style="opacity:0.966" fill="#e81d25" d="M 298.5,627.5 C 430.833,627.5 563.167,627.5 695.5,627.5C 695.5,640.5 695.5,653.5 695.5,666.5C 563.167,666.5 430.833,666.5 298.5,666.5C 298.5,653.5 298.5,640.5 298.5,627.5 Z"/></g>
<g><path style="opacity:0.965" fill="#e81d25" d="M 298.5,719.5 C 397.5,719.5 496.5,719.5 595.5,719.5C 595.5,732.5 595.5,745.5 595.5,758.5C 496.5,758.5 397.5,758.5 298.5,758.5C 298.5,745.5 298.5,732.5 298.5,719.5 Z"/></g>
</svg>
