<svg width="21" height="21" viewBox="0 0 21 21" fill="none" xmlns="http://www.w3.org/2000/svg">
<g clip-path="url(#clip0_80_23)">
<path d="M19.238 10.484C19.2386 9.93873 19.4043 9.40644 19.7133 8.95716C20.0223 8.50789 20.4601 8.16269 20.969 7.967C20.7054 6.86574 20.2686 5.81331 19.675 4.849C19.3286 5.00273 18.954 5.08276 18.575 5.084C18.1256 5.08485 17.6832 4.97319 17.288 4.7592C16.8928 4.54522 16.5575 4.23571 16.3127 3.8589C16.0678 3.4821 15.9211 3.04999 15.8861 2.60198C15.851 2.15396 15.9287 1.7043 16.112 1.294C15.1498 0.70042 14.0994 0.263632 13 0C12.8032 0.507747 12.4575 0.944118 12.0082 1.25183C11.5589 1.55953 11.0271 1.7242 10.4825 1.7242C9.93794 1.7242 9.40612 1.55953 8.95683 1.25183C8.50755 0.944118 8.16181 0.507747 7.965 0C6.86444 0.263828 5.8127 0.700591 4.849 1.294C5.03229 1.7043 5.10995 2.15396 5.0749 2.60198C5.03985 3.04999 4.8932 3.4821 4.64833 3.8589C4.40346 4.23571 4.06815 4.54522 3.67299 4.7592C3.27783 4.97319 2.83538 5.08485 2.386 5.084C2.00673 5.08544 1.63158 5.00529 1.286 4.849C0.698048 5.81741 0.264202 6.87132 0 7.973C0.507943 8.1693 0.944658 8.51461 1.25281 8.96359C1.56097 9.41257 1.72616 9.94423 1.7267 10.4888C1.72724 11.0333 1.5631 11.5653 1.25584 12.0149C0.948581 12.4645 0.512553 12.8107 0.00500011 13.008C0.26904 14.109 0.706144 15.1611 1.3 16.125C1.79748 15.9037 2.35034 15.8385 2.88567 15.9378C3.421 16.0371 3.91365 16.2964 4.29864 16.6814C4.68364 17.0664 4.94289 17.559 5.04222 18.0943C5.14154 18.6297 5.07626 19.1825 4.855 19.68C5.81976 20.2727 6.87204 20.7094 7.973 20.974C8.16813 20.4661 8.51265 20.0293 8.96111 19.7211C9.40956 19.413 9.94089 19.2481 10.485 19.2481C11.0291 19.2481 11.5604 19.413 12.0089 19.7211C12.4574 20.0293 12.8019 20.4661 12.997 20.974C14.0983 20.7104 15.1507 20.2736 16.115 19.68C15.8977 19.1826 15.8354 18.6312 15.9362 18.0979C16.037 17.5645 16.2963 17.0739 16.6801 16.6901C17.0639 16.3063 17.5545 16.047 18.0879 15.9462C18.6212 15.8454 19.1726 15.9077 19.67 16.125C20.2627 15.1602 20.6994 14.108 20.964 13.007C20.4559 12.8089 20.0194 12.4621 19.7115 12.012C19.4036 11.5619 19.2385 11.0294 19.238 10.484ZM10.538 14.847C9.67355 14.8484 8.82813 14.5933 8.10871 14.114C7.38929 13.6348 6.82821 12.9528 6.49649 12.1546C6.16476 11.3563 6.0773 10.4776 6.24517 9.62958C6.41304 8.78159 6.82869 8.00246 7.43953 7.39078C8.05036 6.7791 8.82893 6.36238 9.67669 6.19335C10.5244 6.02431 11.4033 6.11057 12.202 6.44119C13.0007 6.77182 13.6834 7.33195 14.1637 8.05072C14.644 8.76948 14.9002 9.61455 14.9 10.479C14.9003 11.0526 14.7875 11.6206 14.5683 12.1506C14.349 12.6806 14.0274 13.1622 13.622 13.5679C13.2166 13.9736 12.7352 14.2955 12.2053 14.5151C11.6755 14.7348 11.1076 14.8479 10.534 14.848L10.538 14.847Z" fill="#E91D26"/>
</g>
<defs>
<clipPath id="clip0_80_23">
<rect width="20.969" height="20.974" fill="white"/>
</clipPath>
</defs>
</svg>
