<svg xmlns="http://www.w3.org/2000/svg" width="18.152" height="25.082" viewBox="0 0 18.152 25.082">
  <g id="Group_75" data-name="Group 75" transform="translate(-18.156 -958.361)">
    <path id="Path_206" data-name="Path 206" d="M25.282,958.361a.57.57,0,0,0-.517.57v.588H23.091a.57.57,0,0,0-.57.57v.713H18.726a.57.57,0,0,0-.57.57v21.5a.57.57,0,0,0,.57.57H35.738a.57.57,0,0,0,.57-.57v-21.5a.57.57,0,0,0-.57-.57H31.944v-.713a.57.57,0,0,0-.57-.57H29.691v-.588a.57.57,0,0,0-.57-.57H25.282Zm.624,1.14H28.55v.588a.57.57,0,0,0,.57.57H30.8V962.1H23.661v-1.443h1.674a.57.57,0,0,0,.57-.57Zm-4.427,6.27H33.057a.57.57,0,1,1,0,1.14H21.532a.571.571,0,1,1-.053-1.14Zm-.009,4.489a.531.531,0,0,1,.062,0H33.057a.57.57,0,1,1,0,1.14H21.532a.571.571,0,1,1-.062-1.14Zm.009,4.48H33.057a.57.57,0,1,1,0,1.14H21.532a.571.571,0,1,1-.053-1.14Zm-.009,4.489h8.5a.57.57,0,0,1,0,1.14H21.532a.571.571,0,0,1-.062-1.14Z" transform="translate(0 0)" fill="#fff"/>
  </g>
</svg>
