<svg width="22" height="26" viewBox="0 0 22 26" fill="none" xmlns="http://www.w3.org/2000/svg">
<g clip-path="url(#clip0_2_2)">
<path d="M15.137 14.471C15.109 15.771 13.181 16.821 10.807 16.821C8.433 16.821 6.507 15.772 6.477 14.471C4.70678 14.6347 3.06143 15.4534 1.8632 16.7667C0.664968 18.0799 0.000168385 19.7932 -0.000999451 21.571C-0.000999451 25.511 3.193 25.501 7.133 25.501H14.48C18.42 25.501 21.614 25.511 21.614 21.571C21.6129 19.7934 20.9482 18.0802 19.7502 16.767C18.5521 15.4537 16.907 14.6349 15.137 14.471Z" fill="#E91D26"/>
<path d="M10.803 14.247C8.393 14.247 6.403 11.634 6.082 8.24701H5.427C5.791 12.11 8.059 15.086 10.803 15.086C13.547 15.086 15.816 12.11 16.179 8.24801H15.524C15.208 11.635 13.217 14.247 10.803 14.247Z" fill="#E91D26"/>
<path d="M5.175 7.439H16.44C16.6507 7.439 16.8528 7.35529 17.0018 7.2063C17.1508 7.0573 17.2345 6.85521 17.2345 6.6445C17.2345 6.43379 17.1508 6.2317 17.0018 6.0827C16.8528 5.93371 16.6507 5.85 16.44 5.85H16.224C16.224 4.84876 15.9464 3.86713 15.4221 3.01414C14.8978 2.16115 14.1473 1.47018 13.254 1.018L12.805 3.563C12.7881 3.65898 12.7379 3.74595 12.6633 3.80866C12.5888 3.87137 12.4945 3.90583 12.397 3.906C12.3725 3.90597 12.3481 3.90397 12.324 3.9C12.2703 3.89058 12.2189 3.87066 12.1729 3.84138C12.1269 3.8121 12.0871 3.77404 12.0558 3.72936C12.0245 3.68469 12.0023 3.63428 11.9905 3.58103C11.9787 3.52777 11.9775 3.47271 11.987 3.419L12.5 0.512001C12.4022 0.355202 12.266 0.225915 12.1043 0.136334C11.9426 0.0467541 11.7608 -0.000165799 11.576 4.40211e-07H10.039C9.85435 4.02581e-06 9.67273 0.0470048 9.51126 0.136577C9.34978 0.226149 9.21376 0.355346 9.116 0.512001L9.629 3.42C9.6385 3.47372 9.63731 3.52877 9.62551 3.58203C9.6137 3.63528 9.59152 3.68569 9.56022 3.73036C9.52892 3.77504 9.48912 3.8131 9.4431 3.84238C9.39707 3.87166 9.34573 3.89158 9.292 3.901C9.26789 3.90511 9.24346 3.90712 9.219 3.907C9.12149 3.90703 9.0271 3.87264 8.95246 3.8099C8.87782 3.74715 8.82773 3.66007 8.811 3.564L8.359 1.019C7.46562 1.47084 6.71505 2.16158 6.19073 3.01444C5.66641 3.8673 5.38888 4.84886 5.389 5.85H5.172C4.96129 5.85 4.7592 5.93371 4.6102 6.0827C4.46121 6.2317 4.3775 6.43379 4.3775 6.6445C4.3775 6.85521 4.46121 7.0573 4.6102 7.2063C4.7592 7.35529 4.96129 7.439 5.172 7.439H5.175Z" fill="#E91D26"/>
</g>
<defs>
<clipPath id="clip0_2_2">
<rect width="21.615" height="25.505" fill="white"/>
</clipPath>
</defs>
</svg>
