<svg xmlns="http://www.w3.org/2000/svg" width="21.615" height="25.505" viewBox="0 0 21.615 25.505">
  <g id="Group_41" data-name="Group 41" transform="translate(-11.863 -5)">
    <path id="Path_210" data-name="Path 210" d="M27,56.064c-.028,1.3-1.956,2.35-4.33,2.35s-4.3-1.049-4.33-2.35a7.135,7.135,0,0,0-6.478,7.1c0,3.94,3.194,3.93,7.134,3.93h7.347c3.94,0,7.134.01,7.134-3.93A7.135,7.135,0,0,0,27,56.064Z" transform="translate(0 -36.593)" fill="#818b96"/>
    <path id="Path_211" data-name="Path 211" d="M36.4,40.091c-2.41,0-4.4-2.613-4.721-6h-.655c.364,3.863,2.632,6.839,5.376,6.839s5.013-2.976,5.376-6.838h-.655C40.805,37.479,38.814,40.091,36.4,40.091Z" transform="translate(-13.734 -20.844)" fill="#818b96"/>
    <path id="Path_212" data-name="Path 212" d="M28.116,12.439H39.381a.794.794,0,1,0,0-1.589h-.216a5.416,5.416,0,0,0-2.97-4.832l-.449,2.545a.415.415,0,0,1-.408.343.453.453,0,0,1-.073-.006.415.415,0,0,1-.337-.481l.513-2.907A1.088,1.088,0,0,0,34.517,5H32.98a1.088,1.088,0,0,0-.923.512L32.57,8.42a.415.415,0,0,1-.337.481.422.422,0,0,1-.073.006.414.414,0,0,1-.408-.343L31.3,6.019a5.413,5.413,0,0,0-2.97,4.831h-.217a.794.794,0,0,0,0,1.589Z" transform="translate(-11.078)" fill="#818b96"/>
  </g>
</svg>
