<svg xmlns="http://www.w3.org/2000/svg" width="22" height="22" viewBox="0 0 22 22">
  <path id="Union_4" data-name="Union 4" d="M18.965,22V11.367H3.034V22H0V6.967L11,0,22,6.967V22ZM9.708,8.885q.129.059.265.106a.378.378,0,0,1,.268.35V9.9h1.517V9.341a.379.379,0,0,1,.268-.351c.09-.031.179-.067.265-.106a.4.4,0,0,1,.445.065l.409.4,1.073-1.037-.409-.395a.367.367,0,0,1-.067-.431c.041-.083.077-.169.11-.256a.388.388,0,0,1,.362-.259h.578V5.5h-.578a.388.388,0,0,1-.363-.259c-.032-.087-.069-.173-.11-.256a.367.367,0,0,1,.067-.431l.409-.4L13.146,3.122l-.409.4a.4.4,0,0,1-.445.065c-.086-.039-.175-.074-.265-.106a.378.378,0,0,1-.268-.35V2.567H10.241v.559a.378.378,0,0,1-.268.35c-.09.031-.179.067-.265.106a.4.4,0,0,1-.446-.065l-.408-.4L7.781,4.159l.409.4a.367.367,0,0,1,.067.431q-.061.125-.11.256a.388.388,0,0,1-.363.259H7.207V6.967h.578a.389.389,0,0,1,.363.259,2.752,2.752,0,0,0,.11.256.367.367,0,0,1-.067.431l-.409.4L8.854,9.345l.408-.4a.379.379,0,0,1,.266-.1A.437.437,0,0,1,9.708,8.885Zm3.947,12.749V17.967h1.517v1.467h.759V17.967h1.517v3.667Zm-4.552,0V17.967h1.517v1.467h.759V17.967H12.9v3.667Zm-4.552,0V17.967H6.069v1.467h.759V17.967H8.345v3.667Zm9.1-4.4V13.567h1.517v1.467h.759V13.567h1.517v3.667Zm-4.552,0V13.567h1.517v1.467h.759V13.567H12.9v3.667Zm.379-11A1.518,1.518,0,1,1,11,7.7,1.493,1.493,0,0,1,9.483,6.233Z" fill="#818b96"/>
</svg>
