<svg width="22" height="22" viewBox="0 0 22 22" fill="none" xmlns="http://www.w3.org/2000/svg">
<g clip-path="url(#clip0_78_9)">
<path d="M18.965 22V11.367H3.034V22H0V6.967L11 0L22 6.967V22H18.965ZM9.708 8.885C9.794 8.92433 9.88233 8.95967 9.973 8.991C10.0487 9.01397 10.1152 9.0601 10.1633 9.12289C10.2114 9.18568 10.2386 9.26196 10.241 9.341V9.9H11.758V9.341C11.7604 9.26183 11.7875 9.18539 11.8356 9.12243C11.8837 9.05948 11.9503 9.01316 12.026 8.99C12.116 8.959 12.205 8.923 12.291 8.884C12.3631 8.84898 12.4441 8.83645 12.5235 8.84804C12.6029 8.85963 12.6769 8.89481 12.736 8.949L13.145 9.349L14.218 8.312L13.809 7.917C13.7532 7.86177 13.7166 7.79011 13.7045 7.71253C13.6925 7.63496 13.7056 7.55556 13.742 7.486C13.783 7.403 13.819 7.317 13.852 7.23C13.8785 7.1549 13.9274 7.08976 13.9922 7.04343C14.0569 6.99709 14.1344 6.97181 14.214 6.971H14.792V5.5H14.214C14.1342 5.4994 14.0565 5.47421 13.9916 5.42786C13.9266 5.38151 13.8775 5.31626 13.851 5.241C13.819 5.154 13.782 5.068 13.741 4.985C13.7046 4.91544 13.6915 4.83604 13.7035 4.75847C13.7156 4.68089 13.7522 4.60923 13.808 4.554L14.217 4.154L13.146 3.122L12.737 3.522C12.6779 3.57619 12.6039 3.61137 12.5245 3.62296C12.4451 3.63455 12.3641 3.62202 12.292 3.587C12.206 3.548 12.117 3.513 12.027 3.481C11.9513 3.45803 11.8848 3.4119 11.8367 3.34911C11.7886 3.28632 11.7614 3.21004 11.759 3.131V2.567H10.241V3.126C10.2386 3.20504 10.2114 3.28132 10.1633 3.34411C10.1152 3.4069 10.0487 3.45303 9.973 3.476C9.883 3.507 9.794 3.543 9.708 3.582C9.63574 3.61724 9.55453 3.62989 9.47497 3.6183C9.39542 3.6067 9.3212 3.5714 9.262 3.517L8.854 3.117L7.781 4.159L8.19 4.559C8.2458 4.61423 8.28242 4.68589 8.29448 4.76347C8.30653 4.84104 8.2934 4.92044 8.257 4.99C8.21633 5.07333 8.17967 5.15867 8.147 5.246C8.12047 5.32126 8.07138 5.38651 8.00642 5.43286C7.94147 5.47921 7.8638 5.5044 7.784 5.505H7.207V6.967H7.785C7.86476 6.96775 7.94236 6.99299 8.0073 7.03932C8.07223 7.08565 8.12135 7.15082 8.148 7.226C8.18032 7.31314 8.21703 7.39858 8.258 7.482C8.2944 7.55156 8.30754 7.63096 8.29548 7.70853C8.28342 7.78611 8.2468 7.85777 8.191 7.913L7.782 8.313L8.854 9.345L9.262 8.945C9.33434 8.87843 9.42972 8.84257 9.528 8.845C9.59016 8.84538 9.65153 8.85902 9.708 8.885ZM13.655 21.634V17.967H15.172V19.434H15.931V17.967H17.448V21.634H13.655ZM9.103 21.634V17.967H10.62V19.434H11.379V17.967H12.9V21.634H9.103ZM4.551 21.634V17.967H6.069V19.434H6.828V17.967H8.345V21.634H4.551ZM13.651 17.234V13.567H15.168V15.034H15.927V13.567H17.444V17.234H13.651ZM9.099 17.234V13.567H10.616V15.034H11.375V13.567H12.9V17.234H9.099ZM9.478 6.234C9.46765 5.93194 9.5477 5.63366 9.70791 5.37738C9.86811 5.12109 10.1012 4.91846 10.3772 4.79544C10.6533 4.67242 10.9598 4.63461 11.2575 4.68686C11.5552 4.7391 11.8305 4.87902 12.0482 5.08869C12.2659 5.29837 12.416 5.56825 12.4794 5.86377C12.5427 6.15929 12.5164 6.467 12.4039 6.74749C12.2913 7.02797 12.0975 7.26846 11.8474 7.43816C11.5973 7.60785 11.3022 7.69903 11 7.7C10.6044 7.70642 10.2223 7.55552 9.9379 7.28045C9.65345 7.00537 9.48984 6.62864 9.483 6.233L9.478 6.234Z" fill="#E91D26"/>
</g>
<defs>
<clipPath id="clip0_78_9">
<rect width="22" height="22" fill="white"/>
</clipPath>
</defs>
</svg>
